# xmcd CD database file
#
# Track frame offsets:
#	150
#	9405
#	17512
#	30013
#	41066
#	52834
#	62633
#	73620
#	85689
#	96236
#	110126
#	128331
#
# Disc length: 1919 seconds
#
# Revision: 0
# Processed by: cddbd v1.5.1PL0 Copyright (c) Steve Scherf et al.
# Submitted via: CDex 1.51
#
DISCID=86077d0c
DTITLE=Various Artist - Total Country CD1
DYEAR=1900
DGENRE=Country
TTITLE0=FRANKIE LAINE - RAWHIDE
TTITLE1=ROGER MILLER - DANG ME
TTITLE2=LYNN ANDERSON - STAND BY YOUR MAN
TTITLE3=DONNA FARGO - ALL THAT'S KEEPING ME ALIVE
TTITLE4=PATSY CLINE - WALKIN' AFTER MIDNIGHT
TTITLE5=WILLIE NELSON - LET'S PRETEND
TTITLE6=STONEWALL JACKSON - LET THE SUN SHINE ON THE PEOPLE
TTITLE7=OAK RIDGE BOYS - TIME HAS MADE A CHANGE IN ME
TTITLE8=FARON YOUNG - HELLO WALLS
TTITLE9=FREDDIE FENDER - BABY I WANT TO LOVE YOU
TTITLE10=FAT CAT BAND - FLY LIKE AN EAGLE
TTITLE11=RAY PILLOW - HOW DO I HIDE FROM A MEMORY
EXTD=
EXTT0=
EXTT1=
EXTT2=
EXTT3=
EXTT4=
EXTT5=
EXTT6=
EXTT7=
EXTT8=
EXTT9=
EXTT10=
EXTT11=
PLAYORDER=
